<mxfile host="app.diagrams.net" modified="2024-02-08T17:44:22.828Z" agent="Mozilla/5.0 (X11; Linux x86_64) AppleWebKit/537.36 (KHTML, like Gecko) Chrome/121.0.0.0 Safari/537.36" etag="5ynR1d3Tx-P36sJ2hqJ-" version="23.1.2" type="device" pages="3">
  <diagram name="Integration" id="6bs2xvqOoQj8B5XkELUm">
    <mxGraphModel dx="1502" dy="2014" grid="0" gridSize="10" guides="1" tooltips="1" connect="1" arrows="1" fold="1" page="1" pageScale="1" pageWidth="850" pageHeight="1100" math="0" shadow="0">
      <root>
        <mxCell id="0" />
        <mxCell id="1" parent="0" />
        <mxCell id="EJvTgRRr1ytgP2N93Zxn-4" value="" style="group" parent="1" vertex="1" connectable="0">
          <mxGeometry x="190" y="180" width="150" height="100" as="geometry" />
        </mxCell>
        <mxCell id="EJvTgRRr1ytgP2N93Zxn-1" value="&lt;b&gt;marketplace&lt;/b&gt;" style="ellipse;whiteSpace=wrap;html=1;fillColor=#fff2cc;strokeColor=#d6b656;" parent="EJvTgRRr1ytgP2N93Zxn-4" vertex="1">
          <mxGeometry width="150" height="100" as="geometry" />
        </mxCell>
        <mxCell id="EJvTgRRr1ytgP2N93Zxn-11" style="edgeStyle=orthogonalEdgeStyle;rounded=0;orthogonalLoop=1;jettySize=auto;html=1;exitX=0.5;exitY=1;exitDx=0;exitDy=0;entryX=0;entryY=0.5;entryDx=0;entryDy=0;" parent="1" source="EJvTgRRr1ytgP2N93Zxn-5" target="EJvTgRRr1ytgP2N93Zxn-1" edge="1">
          <mxGeometry relative="1" as="geometry" />
        </mxCell>
        <mxCell id="EJvTgRRr1ytgP2N93Zxn-5" value="&lt;b&gt;&lt;i&gt;ZibBr&lt;/i&gt;&lt;/b&gt;" style="rounded=1;whiteSpace=wrap;html=1;fillColor=#f5f5f5;fontColor=#333333;strokeColor=#666666;" parent="1" vertex="1">
          <mxGeometry x="30" y="-110" width="120" height="60" as="geometry" />
        </mxCell>
        <mxCell id="EJvTgRRr1ytgP2N93Zxn-12" style="edgeStyle=orthogonalEdgeStyle;rounded=0;orthogonalLoop=1;jettySize=auto;html=1;exitX=0.5;exitY=1;exitDx=0;exitDy=0;" parent="1" source="EJvTgRRr1ytgP2N93Zxn-6" edge="1">
          <mxGeometry relative="1" as="geometry">
            <mxPoint x="265" y="190" as="targetPoint" />
          </mxGeometry>
        </mxCell>
        <mxCell id="EJvTgRRr1ytgP2N93Zxn-6" value="&lt;b&gt;&lt;i&gt;RbBatch&lt;/i&gt;&lt;/b&gt;" style="rounded=1;whiteSpace=wrap;html=1;fillColor=#f5f5f5;fontColor=#333333;strokeColor=#666666;" parent="1" vertex="1">
          <mxGeometry x="205" y="-110" width="120" height="60" as="geometry" />
        </mxCell>
        <mxCell id="EJvTgRRr1ytgP2N93Zxn-14" style="edgeStyle=orthogonalEdgeStyle;rounded=0;orthogonalLoop=1;jettySize=auto;html=1;exitX=0.5;exitY=1;exitDx=0;exitDy=0;entryX=1;entryY=0.5;entryDx=0;entryDy=0;" parent="1" source="EJvTgRRr1ytgP2N93Zxn-7" target="EJvTgRRr1ytgP2N93Zxn-1" edge="1">
          <mxGeometry relative="1" as="geometry" />
        </mxCell>
        <mxCell id="EJvTgRRr1ytgP2N93Zxn-7" value="&lt;b&gt;&lt;i&gt;Provoly&lt;/i&gt;&lt;/b&gt;" style="rounded=1;whiteSpace=wrap;html=1;fillColor=#f5f5f5;fontColor=#333333;strokeColor=#666666;" parent="1" vertex="1">
          <mxGeometry x="390" y="-110" width="120" height="60" as="geometry" />
        </mxCell>
        <mxCell id="EJvTgRRr1ytgP2N93Zxn-8" value="&lt;b&gt;&lt;i&gt;Order Queue&lt;/i&gt;&lt;/b&gt;" style="shape=cylinder3;whiteSpace=wrap;html=1;boundedLbl=1;backgroundOutline=1;size=15;fillColor=#f8cecc;strokeColor=#b85450;" parent="1" vertex="1">
          <mxGeometry x="220" y="330" width="90" height="100" as="geometry" />
        </mxCell>
        <mxCell id="EJvTgRRr1ytgP2N93Zxn-10" style="edgeStyle=orthogonalEdgeStyle;rounded=0;orthogonalLoop=1;jettySize=auto;html=1;exitX=0.5;exitY=1;exitDx=0;exitDy=0;entryX=0.5;entryY=0;entryDx=0;entryDy=0;entryPerimeter=0;" parent="1" source="EJvTgRRr1ytgP2N93Zxn-1" target="EJvTgRRr1ytgP2N93Zxn-8" edge="1">
          <mxGeometry relative="1" as="geometry" />
        </mxCell>
        <mxCell id="QfT0gPSdKocHzmINpzKG-2" style="edgeStyle=orthogonalEdgeStyle;rounded=0;orthogonalLoop=1;jettySize=auto;html=1;exitX=0;exitY=0.3333333333333333;exitDx=0;exitDy=0;exitPerimeter=0;entryX=0.425;entryY=0.05;entryDx=0;entryDy=0;entryPerimeter=0;" parent="1" source="EJvTgRRr1ytgP2N93Zxn-15" target="EJvTgRRr1ytgP2N93Zxn-5" edge="1">
          <mxGeometry relative="1" as="geometry" />
        </mxCell>
        <mxCell id="QfT0gPSdKocHzmINpzKG-3" style="edgeStyle=orthogonalEdgeStyle;rounded=0;orthogonalLoop=1;jettySize=auto;html=1;exitX=0.5;exitY=0.5;exitDx=0;exitDy=0;exitPerimeter=0;" parent="1" source="EJvTgRRr1ytgP2N93Zxn-15" target="EJvTgRRr1ytgP2N93Zxn-6" edge="1">
          <mxGeometry relative="1" as="geometry" />
        </mxCell>
        <mxCell id="QfT0gPSdKocHzmINpzKG-4" style="edgeStyle=orthogonalEdgeStyle;rounded=0;orthogonalLoop=1;jettySize=auto;html=1;exitX=1;exitY=0.3333333333333333;exitDx=0;exitDy=0;exitPerimeter=0;entryX=0.5;entryY=0;entryDx=0;entryDy=0;" parent="1" source="EJvTgRRr1ytgP2N93Zxn-15" target="EJvTgRRr1ytgP2N93Zxn-7" edge="1">
          <mxGeometry relative="1" as="geometry" />
        </mxCell>
        <mxCell id="EJvTgRRr1ytgP2N93Zxn-15" value="Actor" style="shape=umlActor;verticalLabelPosition=bottom;verticalAlign=top;html=1;outlineConnect=0;fillColor=#f8cecc;strokeColor=#b85450;" parent="1" vertex="1">
          <mxGeometry x="250" y="-290" width="30" height="80" as="geometry" />
        </mxCell>
        <mxCell id="EJvTgRRr1ytgP2N93Zxn-23" value="&lt;h1 style=&quot;font-size: 15px;&quot;&gt;&lt;font style=&quot;font-size: 15px;&quot;&gt;Order Queue&lt;/font&gt;&lt;/h1&gt;&lt;p style=&quot;font-size: 15px;&quot;&gt;Stores the integration received&lt;/p&gt;" style="text;html=1;strokeColor=none;fillColor=none;spacing=5;spacingTop=-20;whiteSpace=wrap;overflow=hidden;rounded=0;" parent="1" vertex="1">
          <mxGeometry x="340" y="320" width="171" height="78" as="geometry" />
        </mxCell>
        <mxCell id="FXkBtfsvqDUryoZy2Q1z-1" value="&lt;h1&gt;Push to order queue&lt;br&gt;&lt;br&gt;&lt;font style=&quot;font-size: 15px;&quot;&gt;&lt;span style=&quot;font-weight: normal;&quot;&gt;The push to the order queue, will be with the status = &#39;&lt;/span&gt;&lt;i&gt;GENERATE&lt;/i&gt;&lt;span style=&quot;font-weight: normal;&quot;&gt;&#39;&lt;/span&gt;&lt;/font&gt;&lt;/h1&gt;" style="text;html=1;strokeColor=none;fillColor=none;spacing=5;spacingTop=-20;whiteSpace=wrap;overflow=hidden;rounded=0;" parent="1" vertex="1">
          <mxGeometry x="80" y="454" width="467" height="115" as="geometry" />
        </mxCell>
        <mxCell id="yPvkSjputPTzya3KqDPj-7" value="&lt;b style=&quot;&quot;&gt;&lt;font style=&quot;font-size: 12px;&quot;&gt;/integrations/provoly&lt;/font&gt;&lt;/b&gt;" style="rounded=1;whiteSpace=wrap;html=1;movable=1;resizable=1;rotatable=1;deletable=1;editable=1;locked=0;connectable=1;" parent="1" vertex="1">
          <mxGeometry x="372" y="40" width="156" height="51" as="geometry" />
        </mxCell>
        <mxCell id="yPvkSjputPTzya3KqDPj-8" value="&lt;b&gt;WebHook&lt;/b&gt;" style="text;html=1;strokeColor=none;fillColor=none;align=center;verticalAlign=middle;whiteSpace=wrap;rounded=0;movable=1;resizable=1;rotatable=1;deletable=1;editable=1;locked=0;connectable=1;container=0;" parent="1" vertex="1">
          <mxGeometry x="479" y="26" width="15" height="10" as="geometry" />
        </mxCell>
        <mxCell id="0XAII_fNkDng0k-jCXtS-10" value="&lt;b&gt;&lt;font style=&quot;font-size: 12px;&quot;&gt;/integrations/zibbr&lt;/font&gt;&lt;br&gt;&lt;/b&gt;" style="rounded=1;whiteSpace=wrap;html=1;movable=1;resizable=1;rotatable=1;deletable=1;editable=1;locked=0;connectable=1;" parent="1" vertex="1">
          <mxGeometry x="19" y="44" width="142" height="54" as="geometry" />
        </mxCell>
        <mxCell id="0XAII_fNkDng0k-jCXtS-11" value="&lt;b&gt;&lt;font style=&quot;font-size: 12px;&quot;&gt;Polling&lt;/font&gt;&lt;/b&gt;" style="rounded=1;whiteSpace=wrap;html=1;movable=1;resizable=1;rotatable=1;deletable=1;editable=1;locked=0;connectable=1;" parent="1" vertex="1">
          <mxGeometry x="220" y="40" width="114" height="51" as="geometry" />
        </mxCell>
        <mxCell id="0XAII_fNkDng0k-jCXtS-12" value="&lt;b&gt;WebHook&lt;/b&gt;" style="text;html=1;strokeColor=none;fillColor=none;align=center;verticalAlign=middle;whiteSpace=wrap;rounded=0;movable=1;resizable=1;rotatable=1;deletable=1;editable=1;locked=0;connectable=1;container=0;" parent="1" vertex="1">
          <mxGeometry x="110" y="30" width="20" height="10" as="geometry" />
        </mxCell>
      </root>
    </mxGraphModel>
  </diagram>
  <diagram id="k0p-7brFICKpCA51WKlW" name="Queue Pooling">
    <mxGraphModel dx="986" dy="641" grid="0" gridSize="10" guides="1" tooltips="1" connect="1" arrows="1" fold="1" page="1" pageScale="1" pageWidth="850" pageHeight="1100" math="0" shadow="0">
      <root>
        <mxCell id="0" />
        <mxCell id="1" parent="0" />
        <mxCell id="5JLVQkKXoYUa1Nd7pg_r-2" style="edgeStyle=orthogonalEdgeStyle;rounded=0;orthogonalLoop=1;jettySize=auto;html=1;exitX=0.5;exitY=0;exitDx=0;exitDy=0;entryX=0.5;entryY=1;entryDx=0;entryDy=0;entryPerimeter=0;" parent="1" source="sOmqg92rFAw-7w2H74K2-1" target="5JLVQkKXoYUa1Nd7pg_r-1" edge="1">
          <mxGeometry relative="1" as="geometry" />
        </mxCell>
        <mxCell id="sOmqg92rFAw-7w2H74K2-1" value="&lt;b&gt;queue-processor&lt;/b&gt;" style="rounded=1;whiteSpace=wrap;html=1;fillColor=#dae8fc;strokeColor=#6c8ebf;" parent="1" vertex="1">
          <mxGeometry x="295" y="320" width="120" height="60" as="geometry" />
        </mxCell>
        <mxCell id="5JLVQkKXoYUa1Nd7pg_r-1" value="&lt;b&gt;Order Queue&lt;/b&gt;" style="shape=cylinder3;whiteSpace=wrap;html=1;boundedLbl=1;backgroundOutline=1;size=15;fillColor=#f8cecc;strokeColor=#b85450;" parent="1" vertex="1">
          <mxGeometry x="310" y="80" width="90" height="120" as="geometry" />
        </mxCell>
        <mxCell id="5JLVQkKXoYUa1Nd7pg_r-3" value="Polls from queue" style="text;html=1;align=center;verticalAlign=middle;resizable=0;points=[];autosize=1;strokeColor=none;fillColor=none;" parent="1" vertex="1">
          <mxGeometry x="360" y="250" width="110" height="30" as="geometry" />
        </mxCell>
        <mxCell id="7gTY6_sO_f-BvhOfy-14-1" value="&lt;h1&gt;Polling Algorithm&lt;/h1&gt;&lt;p style=&quot;font-size: 11px;&quot;&gt;&lt;font style=&quot;font-size: 11px;&quot;&gt;SELECT&amp;nbsp;&lt;br&gt;&lt;span style=&quot;white-space: pre;&quot;&gt;&#x9;&lt;/span&gt;*&lt;br&gt;FROM&lt;br&gt;&lt;span style=&quot;white-space: pre;&quot;&gt;&#x9;&lt;/span&gt;ORDERS&lt;br&gt;&lt;/font&gt;&lt;/p&gt;&lt;p style=&quot;font-size: 11px;&quot;&gt;&lt;font style=&quot;font-size: 11px;&quot;&gt;WHERE&amp;nbsp;1 = 1&lt;/font&gt;&lt;/p&gt;&lt;p style=&quot;font-size: 11px;&quot;&gt;&lt;span style=&quot;background-color: initial;&quot;&gt;&lt;font style=&quot;font-size: 11px;&quot;&gt;AND STATUS NOT IN ( &#39;FINISHED&#39;, &#39;FAILED&#39; )&lt;/font&gt;&lt;/span&gt;&lt;/p&gt;&lt;p style=&quot;font-size: 11px;&quot;&gt;&lt;span style=&quot;background-color: initial;&quot;&gt;&lt;font style=&quot;font-size: 11px;&quot;&gt;ORDER BY LAST_EXECUTION ASC;&amp;nbsp;&lt;/font&gt;&lt;/span&gt;&lt;/p&gt;" style="text;html=1;strokeColor=none;fillColor=none;spacing=5;spacingTop=-20;whiteSpace=wrap;overflow=hidden;rounded=0;" parent="1" vertex="1">
          <mxGeometry x="404" y="402" width="314" height="194" as="geometry" />
        </mxCell>
      </root>
    </mxGraphModel>
  </diagram>
  <diagram id="3KFiBxskiwrZ6yGwwP41" name="Processing">
    <mxGraphModel dx="986" dy="641" grid="0" gridSize="10" guides="1" tooltips="1" connect="1" arrows="1" fold="1" page="1" pageScale="1" pageWidth="850" pageHeight="1100" math="0" shadow="0">
      <root>
        <mxCell id="0" />
        <mxCell id="1" parent="0" />
        <mxCell id="nPEdTjzN6H7lMo0OnDPN-6" style="edgeStyle=orthogonalEdgeStyle;rounded=0;orthogonalLoop=1;jettySize=auto;html=1;exitX=0.5;exitY=1;exitDx=0;exitDy=0;entryX=0;entryY=0.5;entryDx=0;entryDy=0;curved=1;strokeColor=#66FF66;strokeWidth=3;" parent="1" source="5iNieXvGtpCj5tK3IM44-2" target="nPEdTjzN6H7lMo0OnDPN-2" edge="1">
          <mxGeometry relative="1" as="geometry" />
        </mxCell>
        <mxCell id="qE3W1Afh6fCjP1Kp7L83-7" value="All the mandatory fields &lt;br&gt;are present" style="edgeLabel;html=1;align=center;verticalAlign=middle;resizable=0;points=[];" parent="nPEdTjzN6H7lMo0OnDPN-6" vertex="1" connectable="0">
          <mxGeometry x="-0.0588" y="2" relative="1" as="geometry">
            <mxPoint x="8" as="offset" />
          </mxGeometry>
        </mxCell>
        <mxCell id="qE3W1Afh6fCjP1Kp7L83-8" style="edgeStyle=orthogonalEdgeStyle;rounded=0;orthogonalLoop=1;jettySize=auto;html=1;exitX=1;exitY=0.5;exitDx=0;exitDy=0;entryX=0;entryY=0;entryDx=0;entryDy=0;curved=1;strokeColor=#FF0000;strokeWidth=3;" parent="1" source="5iNieXvGtpCj5tK3IM44-2" target="nPEdTjzN6H7lMo0OnDPN-17" edge="1">
          <mxGeometry relative="1" as="geometry" />
        </mxCell>
        <mxCell id="qE3W1Afh6fCjP1Kp7L83-10" value="A mandatory field is not present.&amp;nbsp;&lt;br&gt;This is a &lt;b&gt;unrecoverable&lt;/b&gt; type of error&amp;nbsp;" style="edgeLabel;html=1;align=center;verticalAlign=middle;resizable=0;points=[];" parent="qE3W1Afh6fCjP1Kp7L83-8" vertex="1" connectable="0">
          <mxGeometry x="-0.2014" y="-11" relative="1" as="geometry">
            <mxPoint as="offset" />
          </mxGeometry>
        </mxCell>
        <mxCell id="5iNieXvGtpCj5tK3IM44-2" value="&lt;b&gt;VALIDATE&lt;/b&gt;" style="ellipse;whiteSpace=wrap;html=1;aspect=fixed;fillColor=#f5f5f5;fontColor=#333333;strokeColor=#666666;strokeWidth=3;" parent="1" vertex="1">
          <mxGeometry x="83" y="389" width="80" height="80" as="geometry" />
        </mxCell>
        <mxCell id="nPEdTjzN6H7lMo0OnDPN-5" style="edgeStyle=orthogonalEdgeStyle;rounded=0;orthogonalLoop=1;jettySize=auto;html=1;exitX=0.5;exitY=1;exitDx=0;exitDy=0;curved=1;strokeColor=#33FF33;strokeWidth=3;" parent="1" source="5iNieXvGtpCj5tK3IM44-3" target="5iNieXvGtpCj5tK3IM44-2" edge="1">
          <mxGeometry relative="1" as="geometry" />
        </mxCell>
        <mxCell id="qE3W1Afh6fCjP1Kp7L83-6" value="Convert the partner document to our &lt;br&gt;generic and well formed document" style="edgeLabel;html=1;align=center;verticalAlign=middle;resizable=0;points=[];" parent="nPEdTjzN6H7lMo0OnDPN-5" vertex="1" connectable="0">
          <mxGeometry x="-0.1733" y="-2" relative="1" as="geometry">
            <mxPoint x="7" y="-13" as="offset" />
          </mxGeometry>
        </mxCell>
        <mxCell id="5iNieXvGtpCj5tK3IM44-3" value="&lt;b&gt;CONVERT&lt;/b&gt;" style="ellipse;whiteSpace=wrap;html=1;aspect=fixed;fillColor=#f5f5f5;fontColor=#333333;strokeColor=#666666;strokeWidth=3;" parent="1" vertex="1">
          <mxGeometry x="123" y="199" width="80" height="80" as="geometry" />
        </mxCell>
        <mxCell id="nPEdTjzN6H7lMo0OnDPN-1" value="&lt;b&gt;RECEIVE&lt;/b&gt;" style="ellipse;whiteSpace=wrap;html=1;aspect=fixed;fillColor=#dae8fc;strokeColor=#6c8ebf;strokeWidth=3;" parent="1" vertex="1">
          <mxGeometry x="376" y="5" width="80" height="80" as="geometry" />
        </mxCell>
        <mxCell id="nPEdTjzN6H7lMo0OnDPN-9" style="edgeStyle=orthogonalEdgeStyle;rounded=0;orthogonalLoop=1;jettySize=auto;html=1;curved=1;strokeColor=#66FF66;strokeWidth=3;" parent="1" source="nPEdTjzN6H7lMo0OnDPN-2" target="nPEdTjzN6H7lMo0OnDPN-8" edge="1">
          <mxGeometry relative="1" as="geometry">
            <Array as="points">
              <mxPoint x="103" y="639" />
              <mxPoint x="103" y="739" />
              <mxPoint x="163" y="739" />
            </Array>
          </mxGeometry>
        </mxCell>
        <mxCell id="qE3W1Afh6fCjP1Kp7L83-12" value="Customer integration was OK." style="edgeLabel;html=1;align=center;verticalAlign=middle;resizable=0;points=[];" parent="nPEdTjzN6H7lMo0OnDPN-9" vertex="1" connectable="0">
          <mxGeometry x="-0.1917" y="-9" relative="1" as="geometry">
            <mxPoint as="offset" />
          </mxGeometry>
        </mxCell>
        <mxCell id="qE3W1Afh6fCjP1Kp7L83-13" style="edgeStyle=orthogonalEdgeStyle;rounded=0;orthogonalLoop=1;jettySize=auto;html=1;entryX=0;entryY=0.5;entryDx=0;entryDy=0;curved=1;strokeColor=#FF0000;strokeWidth=3;" parent="1" source="nPEdTjzN6H7lMo0OnDPN-2" target="nPEdTjzN6H7lMo0OnDPN-17" edge="1">
          <mxGeometry relative="1" as="geometry">
            <Array as="points">
              <mxPoint x="163" y="659" />
              <mxPoint x="408" y="659" />
              <mxPoint x="408" y="514" />
            </Array>
          </mxGeometry>
        </mxCell>
        <mxCell id="qE3W1Afh6fCjP1Kp7L83-14" value="An error was received.&amp;nbsp;&lt;br style=&quot;border-color: var(--border-color); font-size: 12px; background-color: rgb(251, 251, 251);&quot;&gt;&lt;span style=&quot;font-size: 12px; background-color: rgb(251, 251, 251);&quot;&gt;Might be &lt;b&gt;recoverable&lt;/b&gt;&lt;/span&gt;" style="edgeLabel;html=1;align=center;verticalAlign=middle;resizable=0;points=[];" parent="qE3W1Afh6fCjP1Kp7L83-13" vertex="1" connectable="0">
          <mxGeometry x="-0.084" y="17" relative="1" as="geometry">
            <mxPoint as="offset" />
          </mxGeometry>
        </mxCell>
        <mxCell id="nPEdTjzN6H7lMo0OnDPN-2" value="&lt;b&gt;CUSTOMER&lt;/b&gt;" style="ellipse;whiteSpace=wrap;html=1;aspect=fixed;fillColor=#f5f5f5;fontColor=#333333;strokeColor=#666666;strokeWidth=3;" parent="1" vertex="1">
          <mxGeometry x="123" y="559" width="80" height="80" as="geometry" />
        </mxCell>
        <mxCell id="nPEdTjzN6H7lMo0OnDPN-4" style="edgeStyle=orthogonalEdgeStyle;rounded=0;orthogonalLoop=1;jettySize=auto;html=1;exitX=0;exitY=0.5;exitDx=0;exitDy=0;entryX=0.5;entryY=0;entryDx=0;entryDy=0;curved=1;strokeColor=#66FF66;strokeWidth=3;" parent="1" source="nPEdTjzN6H7lMo0OnDPN-3" target="5iNieXvGtpCj5tK3IM44-3" edge="1">
          <mxGeometry relative="1" as="geometry" />
        </mxCell>
        <mxCell id="qE3W1Afh6fCjP1Kp7L83-1" style="edgeStyle=orthogonalEdgeStyle;rounded=0;orthogonalLoop=1;jettySize=auto;html=1;exitX=0.5;exitY=1;exitDx=0;exitDy=0;entryX=0.5;entryY=0;entryDx=0;entryDy=0;curved=1;strokeColor=#FF0000;strokeWidth=3;" parent="1" source="nPEdTjzN6H7lMo0OnDPN-3" target="nPEdTjzN6H7lMo0OnDPN-17" edge="1">
          <mxGeometry relative="1" as="geometry" />
        </mxCell>
        <mxCell id="nPEdTjzN6H7lMo0OnDPN-3" value="&lt;b&gt;FETCH&lt;/b&gt;" style="ellipse;whiteSpace=wrap;html=1;aspect=fixed;fillColor=#f5f5f5;fontColor=#333333;strokeColor=#666666;strokeWidth=3;" parent="1" vertex="1">
          <mxGeometry x="336" y="250" width="80" height="80" as="geometry" />
        </mxCell>
        <mxCell id="nPEdTjzN6H7lMo0OnDPN-7" style="edgeStyle=orthogonalEdgeStyle;rounded=0;orthogonalLoop=1;jettySize=auto;html=1;exitX=0.5;exitY=1;exitDx=0;exitDy=0;entryX=0.5;entryY=0;entryDx=0;entryDy=0;curved=1;strokeColor=#66FF66;strokeWidth=3;" parent="1" source="nPEdTjzN6H7lMo0OnDPN-1" target="nPEdTjzN6H7lMo0OnDPN-3" edge="1">
          <mxGeometry relative="1" as="geometry" />
        </mxCell>
        <mxCell id="qE3W1Afh6fCjP1Kp7L83-29" value="A order was received" style="edgeLabel;html=1;align=center;verticalAlign=middle;resizable=0;points=[];" parent="nPEdTjzN6H7lMo0OnDPN-7" vertex="1" connectable="0">
          <mxGeometry x="-0.2471" y="4" relative="1" as="geometry">
            <mxPoint as="offset" />
          </mxGeometry>
        </mxCell>
        <mxCell id="nPEdTjzN6H7lMo0OnDPN-11" style="edgeStyle=orthogonalEdgeStyle;rounded=0;orthogonalLoop=1;jettySize=auto;html=1;exitX=0.5;exitY=1;exitDx=0;exitDy=0;entryX=0;entryY=0.5;entryDx=0;entryDy=0;curved=1;strokeColor=#66FF66;strokeWidth=3;" parent="1" source="nPEdTjzN6H7lMo0OnDPN-8" target="nPEdTjzN6H7lMo0OnDPN-10" edge="1">
          <mxGeometry relative="1" as="geometry" />
        </mxCell>
        <mxCell id="qE3W1Afh6fCjP1Kp7L83-15" value="Shipping integration was OK" style="edgeLabel;html=1;align=center;verticalAlign=middle;resizable=0;points=[];" parent="nPEdTjzN6H7lMo0OnDPN-11" vertex="1" connectable="0">
          <mxGeometry x="-0.4" y="1" relative="1" as="geometry">
            <mxPoint x="50" y="-19" as="offset" />
          </mxGeometry>
        </mxCell>
        <mxCell id="qE3W1Afh6fCjP1Kp7L83-32" style="edgeStyle=orthogonalEdgeStyle;rounded=0;orthogonalLoop=1;jettySize=auto;html=1;exitX=1;exitY=0.5;exitDx=0;exitDy=0;curved=1;strokeColor=#FF0000;strokeWidth=3;" parent="1" source="nPEdTjzN6H7lMo0OnDPN-8" target="nPEdTjzN6H7lMo0OnDPN-17" edge="1">
          <mxGeometry relative="1" as="geometry">
            <mxPoint x="623" y="529" as="targetPoint" />
            <Array as="points">
              <mxPoint x="153" y="869" />
              <mxPoint x="183" y="869" />
              <mxPoint x="183" y="709" />
              <mxPoint x="543" y="709" />
              <mxPoint x="543" y="569" />
              <mxPoint x="617" y="569" />
            </Array>
          </mxGeometry>
        </mxCell>
        <mxCell id="qE3W1Afh6fCjP1Kp7L83-33" value="An error was received.&amp;nbsp;&lt;br style=&quot;border-color: var(--border-color); font-size: 12px; background-color: rgb(251, 251, 251);&quot;&gt;&lt;span style=&quot;font-size: 12px; background-color: rgb(251, 251, 251);&quot;&gt;Might be &lt;b&gt;recoverable&lt;/b&gt;&lt;/span&gt;" style="edgeLabel;html=1;align=center;verticalAlign=middle;resizable=0;points=[];" parent="qE3W1Afh6fCjP1Kp7L83-32" vertex="1" connectable="0">
          <mxGeometry x="-0.021" y="2" relative="1" as="geometry">
            <mxPoint as="offset" />
          </mxGeometry>
        </mxCell>
        <mxCell id="nPEdTjzN6H7lMo0OnDPN-8" value="&lt;b&gt;SHIPPING&lt;/b&gt;" style="ellipse;whiteSpace=wrap;html=1;aspect=fixed;fillColor=#f5f5f5;fontColor=#333333;strokeColor=#666666;strokeWidth=3;" parent="1" vertex="1">
          <mxGeometry x="73" y="839" width="80" height="80" as="geometry" />
        </mxCell>
        <mxCell id="nPEdTjzN6H7lMo0OnDPN-14" style="edgeStyle=orthogonalEdgeStyle;rounded=0;orthogonalLoop=1;jettySize=auto;html=1;exitX=1;exitY=1;exitDx=0;exitDy=0;entryX=0;entryY=0.5;entryDx=0;entryDy=0;curved=1;strokeColor=#66FF66;strokeWidth=3;" parent="1" source="nPEdTjzN6H7lMo0OnDPN-10" target="nPEdTjzN6H7lMo0OnDPN-12" edge="1">
          <mxGeometry relative="1" as="geometry" />
        </mxCell>
        <mxCell id="qE3W1Afh6fCjP1Kp7L83-16" value="Payment integration was OK" style="edgeLabel;html=1;align=center;verticalAlign=middle;resizable=0;points=[];" parent="nPEdTjzN6H7lMo0OnDPN-14" vertex="1" connectable="0">
          <mxGeometry x="-0.2882" y="-10" relative="1" as="geometry">
            <mxPoint x="55" y="-38" as="offset" />
          </mxGeometry>
        </mxCell>
        <mxCell id="nPEdTjzN6H7lMo0OnDPN-10" value="&lt;b&gt;PAYMENT&lt;/b&gt;" style="ellipse;whiteSpace=wrap;html=1;aspect=fixed;fillColor=#f5f5f5;fontColor=#333333;strokeColor=#666666;strokeWidth=3;" parent="1" vertex="1">
          <mxGeometry x="423" y="969" width="80" height="80" as="geometry" />
        </mxCell>
        <mxCell id="qE3W1Afh6fCjP1Kp7L83-20" style="edgeStyle=orthogonalEdgeStyle;rounded=0;orthogonalLoop=1;jettySize=auto;html=1;exitX=1;exitY=0.5;exitDx=0;exitDy=0;entryX=0.5;entryY=1;entryDx=0;entryDy=0;curved=1;strokeColor=#66FF66;strokeWidth=3;" parent="1" source="nPEdTjzN6H7lMo0OnDPN-12" target="qE3W1Afh6fCjP1Kp7L83-17" edge="1">
          <mxGeometry relative="1" as="geometry" />
        </mxCell>
        <mxCell id="qE3W1Afh6fCjP1Kp7L83-21" value="Order was created with success internally" style="edgeLabel;html=1;align=center;verticalAlign=middle;resizable=0;points=[];" parent="qE3W1Afh6fCjP1Kp7L83-20" vertex="1" connectable="0">
          <mxGeometry x="-0.1366" y="13" relative="1" as="geometry">
            <mxPoint as="offset" />
          </mxGeometry>
        </mxCell>
        <mxCell id="nPEdTjzN6H7lMo0OnDPN-12" value="&lt;b&gt;ORDER&lt;/b&gt;" style="ellipse;whiteSpace=wrap;html=1;aspect=fixed;fillColor=#f5f5f5;fontColor=#333333;strokeColor=#666666;strokeWidth=3;" parent="1" vertex="1">
          <mxGeometry x="980" y="929" width="80" height="80" as="geometry" />
        </mxCell>
        <mxCell id="F0H3bRhmGoOhF_0vCkwh-3" style="edgeStyle=orthogonalEdgeStyle;rounded=0;orthogonalLoop=1;jettySize=auto;html=1;exitX=0;exitY=0.5;exitDx=0;exitDy=0;entryX=1;entryY=0;entryDx=0;entryDy=0;curved=1;strokeColor=#FFD966;strokeWidth=3;" parent="1" source="nPEdTjzN6H7lMo0OnDPN-17" target="nPEdTjzN6H7lMo0OnDPN-2" edge="1">
          <mxGeometry relative="1" as="geometry">
            <Array as="points">
              <mxPoint x="323" y="514" />
              <mxPoint x="323" y="571" />
            </Array>
          </mxGeometry>
        </mxCell>
        <mxCell id="F0H3bRhmGoOhF_0vCkwh-4" value="Status = &lt;b&gt;&lt;u style=&quot;&quot;&gt;CUSTOMER&lt;/u&gt;&lt;/b&gt;&lt;br&gt;&lt;b&gt;Recoverable&lt;/b&gt; error &amp;amp; error times &amp;lt; 3" style="edgeLabel;html=1;align=center;verticalAlign=middle;resizable=0;points=[];" parent="F0H3bRhmGoOhF_0vCkwh-3" vertex="1" connectable="0">
          <mxGeometry x="0.1329" y="17" relative="1" as="geometry">
            <mxPoint x="-29" y="-12" as="offset" />
          </mxGeometry>
        </mxCell>
        <mxCell id="F0H3bRhmGoOhF_0vCkwh-5" style="edgeStyle=orthogonalEdgeStyle;rounded=0;orthogonalLoop=1;jettySize=auto;html=1;exitX=0;exitY=1;exitDx=0;exitDy=0;curved=1;strokeColor=#FFD966;strokeWidth=3;" parent="1" source="nPEdTjzN6H7lMo0OnDPN-17" target="nPEdTjzN6H7lMo0OnDPN-8" edge="1">
          <mxGeometry relative="1" as="geometry">
            <Array as="points">
              <mxPoint x="543" y="546" />
              <mxPoint x="543" y="869" />
            </Array>
          </mxGeometry>
        </mxCell>
        <mxCell id="F0H3bRhmGoOhF_0vCkwh-6" value="Status =&amp;nbsp;&lt;b style=&quot;border-color: var(--border-color);&quot;&gt;&lt;u style=&quot;border-color: var(--border-color);&quot;&gt;SHIPPING&lt;/u&gt;&lt;/b&gt;&lt;br style=&quot;border-color: var(--border-color);&quot;&gt;&lt;b&gt;Recoverable&lt;/b&gt; error &amp;amp; error times &amp;lt; 3" style="edgeLabel;html=1;align=center;verticalAlign=middle;resizable=0;points=[];" parent="F0H3bRhmGoOhF_0vCkwh-5" vertex="1" connectable="0">
          <mxGeometry x="0.4753" y="-21" relative="1" as="geometry">
            <mxPoint as="offset" />
          </mxGeometry>
        </mxCell>
        <mxCell id="F0H3bRhmGoOhF_0vCkwh-7" style="edgeStyle=orthogonalEdgeStyle;rounded=0;orthogonalLoop=1;jettySize=auto;html=1;exitX=0.311;exitY=0.989;exitDx=0;exitDy=0;entryX=0.5;entryY=0;entryDx=0;entryDy=0;curved=1;strokeColor=#FFD966;strokeWidth=3;exitPerimeter=0;" parent="1" source="nPEdTjzN6H7lMo0OnDPN-17" target="nPEdTjzN6H7lMo0OnDPN-10" edge="1">
          <mxGeometry relative="1" as="geometry">
            <Array as="points">
              <mxPoint x="626" y="558" />
              <mxPoint x="626" y="769" />
              <mxPoint x="513" y="769" />
              <mxPoint x="513" y="969" />
            </Array>
          </mxGeometry>
        </mxCell>
        <mxCell id="F0H3bRhmGoOhF_0vCkwh-8" value="Status = &lt;b&gt;&lt;u&gt;PAYMENT&lt;/u&gt;&lt;/b&gt;&lt;br style=&quot;border-color: var(--border-color);&quot;&gt;&lt;b&gt;Recoverable&lt;/b&gt; error &amp;amp; error times &amp;lt; 3" style="edgeLabel;html=1;align=center;verticalAlign=middle;resizable=0;points=[];" parent="F0H3bRhmGoOhF_0vCkwh-7" vertex="1" connectable="0">
          <mxGeometry x="0.2462" y="14" relative="1" as="geometry">
            <mxPoint x="-9" y="111" as="offset" />
          </mxGeometry>
        </mxCell>
        <mxCell id="nPEdTjzN6H7lMo0OnDPN-17" value="&lt;font style=&quot;font-size: 11px;&quot;&gt;&lt;b&gt;FAIL_CHECK&lt;/b&gt;&lt;/font&gt;" style="ellipse;whiteSpace=wrap;html=1;aspect=fixed;fillColor=#fff2cc;strokeColor=#FFD966;strokeWidth=3;" parent="1" vertex="1">
          <mxGeometry x="613" y="469" width="90" height="90" as="geometry" />
        </mxCell>
        <mxCell id="qE3W1Afh6fCjP1Kp7L83-2" value="An error was received.&amp;nbsp;&lt;br&gt;Might be &lt;b&gt;recoverable&lt;/b&gt;" style="text;html=1;align=center;verticalAlign=middle;resizable=0;points=[];autosize=1;strokeColor=none;fillColor=none;" parent="1" vertex="1">
          <mxGeometry x="443" y="279" width="150" height="40" as="geometry" />
        </mxCell>
        <mxCell id="qE3W1Afh6fCjP1Kp7L83-3" value="Successful fetched &lt;br&gt;from partner" style="text;html=1;align=center;verticalAlign=middle;resizable=0;points=[];autosize=1;strokeColor=none;fillColor=none;" parent="1" vertex="1">
          <mxGeometry x="173" y="94" width="120" height="40" as="geometry" />
        </mxCell>
        <mxCell id="qE3W1Afh6fCjP1Kp7L83-19" value="" style="group;strokeWidth=3;" parent="1" vertex="1" connectable="0">
          <mxGeometry x="1285" y="732" width="100" height="100" as="geometry" />
        </mxCell>
        <mxCell id="qE3W1Afh6fCjP1Kp7L83-17" value="" style="ellipse;whiteSpace=wrap;html=1;aspect=fixed;fillColor=#d5e8d4;strokeColor=#82b366;" parent="qE3W1Afh6fCjP1Kp7L83-19" vertex="1">
          <mxGeometry width="100" height="100" as="geometry" />
        </mxCell>
        <mxCell id="qE3W1Afh6fCjP1Kp7L83-18" value="&lt;b&gt;&lt;i&gt;&lt;u&gt;FINISHED&lt;/u&gt;&lt;/i&gt;&lt;/b&gt;" style="ellipse;whiteSpace=wrap;html=1;aspect=fixed;fillColor=#f5f5f5;fontColor=#333333;strokeColor=#666666;" parent="qE3W1Afh6fCjP1Kp7L83-19" vertex="1">
          <mxGeometry x="10" y="10" width="80" height="80" as="geometry" />
        </mxCell>
        <mxCell id="qE3W1Afh6fCjP1Kp7L83-22" value="" style="group" parent="1" vertex="1" connectable="0">
          <mxGeometry x="1023" y="256" width="100" height="100" as="geometry" />
        </mxCell>
        <mxCell id="qE3W1Afh6fCjP1Kp7L83-23" value="" style="ellipse;whiteSpace=wrap;html=1;aspect=fixed;fillColor=#e51400;strokeColor=#B20000;fontColor=#ffffff;" parent="qE3W1Afh6fCjP1Kp7L83-22" vertex="1">
          <mxGeometry width="100" height="100" as="geometry" />
        </mxCell>
        <mxCell id="qE3W1Afh6fCjP1Kp7L83-24" value="&lt;b&gt;&lt;i&gt;&lt;u&gt;ERROR&lt;/u&gt;&lt;/i&gt;&lt;/b&gt;" style="ellipse;whiteSpace=wrap;html=1;aspect=fixed;fillColor=#f5f5f5;fontColor=#333333;strokeColor=#666666;" parent="qE3W1Afh6fCjP1Kp7L83-22" vertex="1">
          <mxGeometry x="10" y="10" width="80" height="80" as="geometry" />
        </mxCell>
        <mxCell id="qE3W1Afh6fCjP1Kp7L83-25" style="edgeStyle=orthogonalEdgeStyle;rounded=0;orthogonalLoop=1;jettySize=auto;html=1;exitX=1;exitY=0.5;exitDx=0;exitDy=0;entryX=0.5;entryY=1;entryDx=0;entryDy=0;curved=1;strokeColor=#FF0000;strokeWidth=3;" parent="1" source="nPEdTjzN6H7lMo0OnDPN-17" target="qE3W1Afh6fCjP1Kp7L83-23" edge="1">
          <mxGeometry relative="1" as="geometry" />
        </mxCell>
        <mxCell id="qE3W1Afh6fCjP1Kp7L83-26" value="The last step was a unrecoverable error(400 http status,&amp;nbsp;&lt;br&gt;mandatory fields are not present).&amp;nbsp;&lt;br&gt;Or, the last step failed 3 times in &lt;br&gt;a row(401/500/502 3 times in a row)" style="edgeLabel;html=1;align=center;verticalAlign=middle;resizable=0;points=[];" parent="qE3W1Afh6fCjP1Kp7L83-25" vertex="1" connectable="0">
          <mxGeometry x="0.0687" y="-27" relative="1" as="geometry">
            <mxPoint x="-27" y="-27" as="offset" />
          </mxGeometry>
        </mxCell>
        <mxCell id="qE3W1Afh6fCjP1Kp7L83-27" value="" style="shape=flexArrow;endArrow=classic;html=1;rounded=0;entryX=0;entryY=0.5;entryDx=0;entryDy=0;fillColor=#dae8fc;strokeColor=#6c8ebf;" parent="1" target="nPEdTjzN6H7lMo0OnDPN-1" edge="1">
          <mxGeometry width="50" height="50" relative="1" as="geometry">
            <mxPoint x="316" y="45" as="sourcePoint" />
            <mxPoint x="256" y="35" as="targetPoint" />
          </mxGeometry>
        </mxCell>
        <mxCell id="qE3W1Afh6fCjP1Kp7L83-30" style="edgeStyle=orthogonalEdgeStyle;rounded=0;orthogonalLoop=1;jettySize=auto;html=1;exitX=1;exitY=0;exitDx=0;exitDy=0;curved=1;strokeColor=#FF0000;strokeWidth=3;" parent="1" source="nPEdTjzN6H7lMo0OnDPN-10" edge="1">
          <mxGeometry relative="1" as="geometry">
            <mxPoint x="663" y="559" as="targetPoint" />
            <Array as="points">
              <mxPoint x="693" y="981" />
              <mxPoint x="693" y="789" />
              <mxPoint x="663" y="789" />
            </Array>
          </mxGeometry>
        </mxCell>
        <mxCell id="qE3W1Afh6fCjP1Kp7L83-31" value="An error was received.&amp;nbsp;&lt;br style=&quot;border-color: var(--border-color); font-size: 12px; background-color: rgb(251, 251, 251);&quot;&gt;&lt;span style=&quot;font-size: 12px; background-color: rgb(251, 251, 251);&quot;&gt;Might be &lt;b&gt;recoverable&lt;/b&gt;&lt;/span&gt;" style="edgeLabel;html=1;align=center;verticalAlign=middle;resizable=0;points=[];" parent="qE3W1Afh6fCjP1Kp7L83-30" vertex="1" connectable="0">
          <mxGeometry x="-0.0035" y="-4" relative="1" as="geometry">
            <mxPoint as="offset" />
          </mxGeometry>
        </mxCell>
        <mxCell id="qE3W1Afh6fCjP1Kp7L83-34" style="edgeStyle=orthogonalEdgeStyle;rounded=0;orthogonalLoop=1;jettySize=auto;html=1;exitX=1;exitY=0;exitDx=0;exitDy=0;entryX=1;entryY=0.413;entryDx=0;entryDy=0;entryPerimeter=0;curved=1;fillColor=#fff2cc;strokeColor=#FFD966;strokeWidth=3;" parent="1" source="nPEdTjzN6H7lMo0OnDPN-17" target="nPEdTjzN6H7lMo0OnDPN-3" edge="1">
          <mxGeometry relative="1" as="geometry">
            <Array as="points">
              <mxPoint x="703" y="482" />
              <mxPoint x="703" y="132" />
            </Array>
          </mxGeometry>
        </mxCell>
        <mxCell id="qE3W1Afh6fCjP1Kp7L83-35" value="Status = &lt;b&gt;&lt;u&gt;FETCH &lt;/u&gt;&lt;/b&gt;&lt;br&gt;&lt;b&gt;Recoverable&lt;/b&gt; error &amp;amp; error times &amp;lt; 3" style="edgeLabel;html=1;align=center;verticalAlign=middle;resizable=0;points=[];" parent="qE3W1Afh6fCjP1Kp7L83-34" vertex="1" connectable="0">
          <mxGeometry x="-0.0662" y="42" relative="1" as="geometry">
            <mxPoint as="offset" />
          </mxGeometry>
        </mxCell>
        <mxCell id="F0H3bRhmGoOhF_0vCkwh-1" style="edgeStyle=orthogonalEdgeStyle;rounded=0;orthogonalLoop=1;jettySize=auto;html=1;exitX=0.5;exitY=0;exitDx=0;exitDy=0;strokeColor=#FF0000;curved=1;strokeWidth=3;entryX=0.911;entryY=0.785;entryDx=0;entryDy=0;entryPerimeter=0;" parent="1" source="nPEdTjzN6H7lMo0OnDPN-12" target="nPEdTjzN6H7lMo0OnDPN-17" edge="1">
          <mxGeometry relative="1" as="geometry">
            <Array as="points">
              <mxPoint x="1020" y="752" />
              <mxPoint x="763" y="752" />
              <mxPoint x="763" y="562" />
              <mxPoint x="703" y="562" />
              <mxPoint x="703" y="540" />
            </Array>
          </mxGeometry>
        </mxCell>
        <mxCell id="F0H3bRhmGoOhF_0vCkwh-2" value="An error was received.&amp;nbsp;&lt;br style=&quot;border-color: var(--border-color); font-size: 12px; background-color: rgb(251, 251, 251);&quot;&gt;&lt;span style=&quot;font-size: 12px; background-color: rgb(251, 251, 251);&quot;&gt;Might be &lt;b&gt;recoverable&lt;/b&gt;&lt;/span&gt;" style="edgeLabel;html=1;align=center;verticalAlign=middle;resizable=0;points=[];" parent="F0H3bRhmGoOhF_0vCkwh-1" vertex="1" connectable="0">
          <mxGeometry x="-0.1964" y="8" relative="1" as="geometry">
            <mxPoint as="offset" />
          </mxGeometry>
        </mxCell>
        <mxCell id="F0H3bRhmGoOhF_0vCkwh-11" value="&lt;h1&gt;Unrecoverable Error&lt;/h1&gt;&lt;p&gt;An unrecoverable error is a type of error that is in a inconsistency state.&amp;nbsp;&amp;nbsp;&lt;br&gt;That means that some manual action must be done.&lt;br&gt;Example: Received 400 http status code in a integration, a mandatory field is not present in the document.&lt;/p&gt;" style="text;html=1;strokeColor=none;fillColor=none;spacing=5;spacingTop=-20;whiteSpace=wrap;overflow=hidden;rounded=0;" parent="1" vertex="1">
          <mxGeometry x="1192" y="427" width="310" height="140" as="geometry" />
        </mxCell>
        <mxCell id="F0H3bRhmGoOhF_0vCkwh-13" value="&lt;h1&gt;Recoverable Error&lt;/h1&gt;&lt;p&gt;A recoverable error is a type of error that can be resolved alone. Without any manual interaction.&amp;nbsp;&lt;br&gt;For example, a 401 error, or a 502.&lt;/p&gt;" style="text;html=1;strokeColor=none;fillColor=none;spacing=5;spacingTop=-20;whiteSpace=wrap;overflow=hidden;rounded=0;" parent="1" vertex="1">
          <mxGeometry x="1155" y="235" width="310" height="110" as="geometry" />
        </mxCell>
      </root>
    </mxGraphModel>
  </diagram>
</mxfile>
